<svg xmlns="http://www.w3.org/2000/svg" xmlns:xlink="http://www.w3.org/1999/xlink" width="500" zoomAndPan="magnify" viewBox="0 0 375 374.999991" height="500" preserveAspectRatio="xMidYMid meet" version="1.0"><defs><clipPath id="id1"><path d="M 304 81.5625 L 372 81.5625 L 372 191 L 304 191 Z M 304 81.5625 " clip-rule="nonzero"/></clipPath><clipPath id="id2"><path d="M 3 81.5625 L 69 81.5625 L 69 191 L 3 191 Z M 3 81.5625 " clip-rule="nonzero"/></clipPath><clipPath id="id3"><path d="M 86.742188 81.703125 L 288.332031 81.703125 L 288.332031 293.65625 L 86.742188 293.65625 Z M 86.742188 81.703125 " clip-rule="nonzero"/></clipPath></defs><g clip-path="url(#id1)"><path fill="#241f31" d="M 317.242188 81.714844 C 315.769531 81.714844 314.3125 81.773438 312.871094 81.890625 C 304.855469 82.527344 301.613281 92.371094 307.234375 98.140625 C 316.753906 107.917969 322.625 121.289062 322.625 136.039062 C 322.625 150.78125 316.761719 164.144531 307.246094 173.921875 C 301.574219 179.75 304.964844 189.589844 313.070312 190.203125 C 316.207031 190.441406 319.417969 190.414062 322.6875 190.097656 C 347.613281 187.675781 368.046875 167.738281 371.058594 142.839844 C 375.050781 109.777344 349.441406 81.714844 317.242188 81.714844 " fill-opacity="1" fill-rule="nonzero"/></g><g clip-path="url(#id2)"><path fill="#241f31" d="M 58.097656 81.71875 C 58.007812 81.714844 57.921875 81.714844 57.832031 81.714844 C 25.632812 81.714844 0.0195312 109.777344 4.015625 142.839844 C 7.023438 167.738281 27.464844 187.675781 52.382812 190.097656 C 54.214844 190.277344 56.027344 190.363281 57.816406 190.363281 C 67.335938 190.367188 72.203125 179.019531 65.917969 171.855469 C 57.535156 162.304688 52.449219 149.769531 52.449219 136.039062 C 52.449219 122.292969 57.546875 109.75 65.945312 100.191406 C 72.152344 93.125 67.492188 81.761719 58.097656 81.71875 " fill-opacity="1" fill-rule="nonzero"/></g><g clip-path="url(#id3)"><path fill="#241f31" d="M 234.066406 153.066406 C 224.675781 153.066406 217.066406 145.445312 217.066406 136.039062 C 217.066406 126.632812 224.675781 119.007812 234.066406 119.007812 C 243.453125 119.007812 251.066406 126.632812 251.066406 136.039062 C 251.066406 145.445312 243.453125 153.066406 234.066406 153.066406 Z M 204.546875 199.667969 C 199.902344 199.667969 196.128906 195.894531 196.128906 191.234375 C 196.128906 186.578125 199.902344 182.804688 204.546875 182.804688 C 209.199219 182.804688 212.964844 186.578125 212.964844 191.234375 C 212.964844 195.894531 209.199219 199.667969 204.546875 199.667969 Z M 177.992188 195.050781 C 176.601562 197.777344 173.796875 199.667969 170.527344 199.667969 C 165.878906 199.667969 162.109375 195.894531 162.109375 191.234375 C 162.109375 186.578125 165.878906 182.804688 170.527344 182.804688 C 173.796875 182.804688 176.601562 184.691406 177.992188 187.421875 C 177.8125 188.667969 177.695312 189.9375 177.695312 191.234375 C 177.695312 192.535156 177.8125 193.800781 177.992188 195.050781 Z M 141.007812 153.066406 C 131.617188 153.066406 124.007812 145.445312 124.007812 136.039062 C 124.007812 126.632812 131.617188 119.007812 141.007812 119.007812 C 150.398438 119.007812 158.011719 126.632812 158.011719 136.039062 C 158.011719 145.445312 150.398438 153.066406 141.007812 153.066406 Z M 234.066406 81.699219 C 214.277344 81.699219 197.007812 92.355469 187.535156 108.214844 C 178.0625 92.355469 160.800781 81.699219 141.007812 81.699219 C 111.054688 81.699219 86.769531 106.027344 86.769531 136.039062 C 86.769531 164.785156 109.070312 188.257812 137.277344 190.1875 C 126.886719 204.304688 120.574219 221.289062 120.574219 235.910156 C 120.574219 267.800781 150.554688 293.65625 187.535156 293.65625 C 224.519531 293.65625 254.5 267.800781 254.5 235.910156 C 254.5 221.289062 248.183594 204.304688 237.800781 190.1875 C 266.007812 188.257812 288.308594 164.785156 288.308594 136.039062 C 288.308594 106.027344 264.023438 81.699219 234.066406 81.699219 " fill-opacity="1" fill-rule="nonzero"/></g></svg>